Coordinates
version=1
nRows=5
nColumns=107
inDegrees=yes

Units are S.I. units (second, meters, Newtons, ...)
If the header above contains a line with 'inDegrees', this indicates whether rotational values are in degrees (yes) or radians (no).

endheader
time	sternoclavicular_r2	sternoclavicular_r3	unrotscap_r3	unrotscap_r2	acromioclavicular_r2	acromioclavicular_r3	acromioclavicular_r1	unrothum_r1	unrothum_r3	unrothum_r2	elv_angle	shoulder_elv	shoulder1_r2	shoulder_rot	elbow_flexion	pro_sup	deviation	flexion	proximal_distal_r1	proximal_distal_r3	cmc_flexion	cmc_abduction	mp_flexion	ip_flexion	mcp2_flexion	mcp2_abduction	pm2_flexion	md2_flexion	mcp3_flexion	mcp3_abduction	pm3_flexion	md3_flexion	mcp4_flexion	mcp4_abduction	pm4_flexion	md4_flexion	mcp5_flexion	mcp5_abduction	pm5_flexion	md5_flexion	bicpt_tx	bicpt_ty	bicpt_tz	bicpt2_tx	bicpt2_ty	bicpt2_tz	ptpt_tx	ptpt_ty	ptpt_tz	FCUpt_tx	FCUpt_ty	FCUpt_tz	EDCpt_tx	EDCpt_ty	EDCpt_tz	APLpt_tx	APLpt_ty	APLpt_tz	FPLpt_tx	FPLpt_ty	FPLpt_tz	FPLpt2_tx	FPLpt2_ty	FPLpt2_tz	PEC1pt2_tx	PEC1pt2_ty	PEC1pt2_tz	PEC1pt3_tx	PEC1pt3_ty	PEC1pt3_tz	PEC2pt2_tx	PEC2pt2_ty	PEC2pt2_tz	PEC2pt3_tx	PEC2pt3_ty	PEC2pt3_tz	PEC3pt2_tx	PEC3pt2_ty	PEC3pt2_tz	PEC3pt3_tx	PEC3pt3_ty	PEC3pt3_tz	DELT2pt2a_tx	DELT2pt2a_ty	DELT2pt2a_tz	DELT2pt2_tx	DELT2pt2_ty	DELT2pt2_tz	LAT1pt2_tx	LAT1pt2_ty	LAT1pt2_tz	LAT1pt3_tx	LAT1pt3_ty	LAT1pt3_tz	LAT2pt2_tx	LAT2pt2_ty	LAT2pt2_tz	LAT2pt3_tx	LAT2pt3_ty	LAT2pt3_tz	LAT3pt2_tx	LAT3pt2_ty	LAT3pt2_tz	LAT3pt3_tx	LAT3pt3_ty	LAT3pt3_tz
      0.40000000	     -0.31552282	      0.13364057	     -0.13364057	      0.31552282	     -0.06388695	      0.51631187	      0.23207863	     -0.23207863	     -0.51631187	      0.06388695	    100.71859322	     74.70283117	     -1.75787107	    -35.06104298	     31.68810252	     86.15155434	      0.34519503	     -0.54523395	      0.37094530	     -0.27261698	     42.21523921	    -20.58833327	     19.79383725	      8.50509085	     70.56894325	      9.80575421	     81.55855205	     63.08538834	     89.61955709	     -2.19116691	     81.81701714	     53.30513802	     85.91184316	    -13.25909952	     94.05993143	     37.73200671	     86.90029693	    -14.10658841	     96.97969062	      5.40050709	      0.00094814	     -0.03123194	     -0.00488501	      0.01422424	     -0.01880823	     -0.00105008	      0.00118437	     -0.06901612	     -0.00698997	      0.01275541	     -0.18223260	      0.00008797	     -0.01033816	      0.00358633	     -0.00076209	      0.00030892	      0.00012357	      0.00061784	      0.00039542	      0.00118626	      0.00066727	     -0.00000695	     -0.00006531	     -0.00007837	      0.00244859	      0.00859083	      0.00597623	     -0.00800981	      0.01933975	     -0.01834371	      0.00244859	      0.00859083	      0.00597623	      0.00053952	      0.01792869	     -0.00942086	      0.00389212	      0.00477725	      0.01582957	      0.00000000	      0.00746121	      0.00000000	     -0.00701377	     -0.03241276	     -0.00615026	      0.02095029	     -0.00093326	     -0.01011099	     -0.00087153	      0.01460857	     -0.00597623	      0.00240709	      0.02108282	     -0.01743068	     -0.00585173	      0.01265799	     -0.00535371	     -0.01220147	      0.02672704	     -0.02992266	     -0.02290889	      0.01415205	     -0.00717978	     -0.01518959	      0.03087720	     -0.03739295
      0.43333333	     -0.31552446	      0.13364127	     -0.13364127	      0.31552446	     -0.06388728	      0.51631456	      0.23207984	     -0.23207984	     -0.51631456	      0.06388728	    100.72643810	     74.70321957	     -1.75800799	    -35.05650169	     31.69915609	     86.15198168	      0.34521091	     -0.54525312	      0.37095785	     -0.27262656	     42.21637306	    -20.58775652	     19.79471323	      8.50531936	     70.56844176	      9.80593839	     81.55847209	     63.08530525	     89.62134353	     -2.19101525	     81.81750984	     53.30521716	     85.91311865	    -13.25901832	     94.06155361	     37.73231272	     86.90056839	    -14.10667641	     96.97988774	      5.40051884	      0.00094851	     -0.03123321	     -0.00488521	      0.01422417	     -0.01881123	     -0.00105000	      0.00118434	     -0.06901614	     -0.00699000	      0.01275546	     -0.18223259	      0.00008799	     -0.01033821	      0.00358636	     -0.00076210	      0.00030889	      0.00012356	      0.00061779	      0.00039539	      0.00118616	      0.00066721	     -0.00000695	     -0.00006529	     -0.00007834	      0.00244861	      0.00859088	      0.00597626	     -0.00800985	      0.01933985	     -0.01834381	      0.00244861	      0.00859088	      0.00597626	      0.00053952	      0.01792879	     -0.00942091	      0.00389214	      0.00477728	      0.01582961	      0.00000000	      0.00746129	      0.00000000	     -0.00701381	     -0.03241292	     -0.00615033	      0.02094856	     -0.00093310	     -0.01010853	     -0.00087154	      0.01460864	     -0.00597626	      0.00240711	      0.02108293	     -0.01743077	     -0.00585176	      0.01265806	     -0.00535374	     -0.01220154	      0.02672717	     -0.02992281	     -0.02290901	      0.01415212	     -0.00717982	     -0.01518967	      0.03087736	     -0.03739314
      0.46666667	     -0.31590637	      0.13380303	     -0.13380303	      0.31590637	     -0.06396461	      0.51693950	      0.23236075	     -0.23236075	     -0.51693950	      0.06396461	    100.43106350	     74.79364041	     -1.75285273	    -34.20164248	     31.96714706	     86.03904544	      0.35831881	     -0.50705519	      0.38119972	     -0.25352760	     42.24680007	    -20.57264225	     19.54304475	      8.40116771	     69.13600972	     10.06689306	     81.13226518	     60.86264476	     89.32658048	     -2.10755760	     81.85539146	     52.34614573	     85.66393869	    -13.21000663	     95.18688945	     38.16263158	     86.23907967	    -14.11060029	     96.77156981	      5.42203630	      0.00095737	     -0.03126392	     -0.00489016	      0.01423587	     -0.01888403	     -0.00106935	      0.00119269	     -0.06901074	     -0.00698091	      0.01274249	     -0.18223641	      0.00008487	     -0.01032466	      0.00358016	     -0.00075847	      0.00030348	      0.00012139	      0.00060695	      0.00038845	      0.00116535	      0.00065551	     -0.00000689	     -0.00006462	     -0.00007754	      0.00245157	      0.00860128	      0.00598350	     -0.00801955	      0.01936326	     -0.01836601	      0.00245157	      0.00860128	      0.00598350	      0.00054018	      0.01795049	     -0.00943232	      0.00389561	      0.00478306	      0.01583829	      0.00000000	      0.00747948	      0.00000000	     -0.00702230	     -0.03245216	     -0.00616544	      0.02062257	     -0.00090289	     -0.00964748	     -0.00087259	      0.01462632	     -0.00598350	      0.00241002	      0.02110845	     -0.01745186	     -0.00585884	      0.01267338	     -0.00536022	     -0.01221630	      0.02675953	     -0.02995903	     -0.02293674	      0.01416925	     -0.00718851	     -0.01520805	      0.03091473	     -0.03743840
      0.50000000	     -0.31660808	      0.13410024	     -0.13410024	      0.31660808	     -0.06410670	      0.51808776	      0.23287688	     -0.23287688	     -0.51808776	      0.06410670	    100.52419076	     74.95977637	     -1.75447811	    -34.07742897	     31.63226824	     86.20184465	      0.35903755	     -0.50772184	      0.38175248	     -0.25386092	     42.15994881	    -20.53792486	     19.49456624	      8.38463869	     69.01154569	     10.06714945	     81.07256880	     60.84776524	     89.19087144	     -2.09625707	     81.78052340	     52.32966049	     85.58397274	    -13.20603233	     95.13426635	     38.14824888	     86.17779420	    -14.11268869	     96.75801303	      5.41473440	      0.00094630	     -0.03122554	     -0.00488398	      0.01421900	     -0.01879306	     -0.00104145	      0.00118066	     -0.06901852	     -0.00699402	      0.01276119	     -0.18223089	      0.00008937	     -0.01034420	      0.00358910	     -0.00076371	      0.00030359	      0.00012144	      0.00060718	      0.00038860	      0.00116579	      0.00065576	     -0.00000706	     -0.00006652	     -0.00007982	      0.00245702	      0.00862038	      0.00599679	     -0.00803736	      0.01940627	     -0.01840681	      0.00245702	      0.00862038	      0.00599679	      0.00054138	      0.01799036	     -0.00945327	      0.00390197	      0.00479368	      0.01585418	      0.00000000	      0.00751296	      0.00000000	     -0.00703790	     -0.03252424	     -0.00619325	      0.02057435	     -0.00089852	     -0.00958116	     -0.00087453	      0.01465881	     -0.00599679	      0.00241537	      0.02115533	     -0.01749063	     -0.00587185	      0.01270153	     -0.00537212	     -0.01224344	      0.02681896	     -0.03002558	     -0.02298768	      0.01420073	     -0.00720447	     -0.01524183	      0.03098340	     -0.03752156
      0.53333333	     -0.31717842	      0.13434181	     -0.13434181	      0.31717842	     -0.06422218	      0.51902106	      0.23329639	     -0.23329639	     -0.51902106	      0.06422218	     99.90860169	     75.09481093	     -1.74373405	    -32.56209614	     32.01005295	     84.20550770	      0.35519190	     -0.53459868	      0.37878225	     -0.26729934	     40.57376547	    -19.34181119	     17.71750333	      5.10529912	     65.73502292	      8.67023156	     75.48212302	     58.86750531	     86.43140717	     -1.50719428	     77.11299940	     49.97076466	     82.96567065	    -12.43464233	     91.42898484	     38.95455868	     82.92047808	    -13.60717450	     95.44354912	      5.22327910	      0.00095879	     -0.03126884	     -0.00489095	      0.01442180	     -0.01889569	     -0.00138113	      0.00132816	     -0.06892314	     -0.00683321	      0.01253234	     -0.18229806	      0.00003556	     -0.01010464	      0.00348002	     -0.00070045	      0.00030772	      0.00012309	      0.00061544	      0.00039388	      0.00118165	      0.00066468	     -0.00000972	     -0.00009977	     -0.00011973	      0.00246144	      0.00863591	      0.00600759	     -0.00805184	      0.01944123	     -0.01843996	      0.00246144	      0.00863591	      0.00600759	      0.00054235	      0.01802277	     -0.00947030	      0.00390715	      0.00480232	      0.01586707	      0.00000000	      0.00754021	      0.00000000	     -0.00705057	     -0.03258283	     -0.00621587	      0.01997089	     -0.00084543	     -0.00878440	     -0.00087611	      0.01468522	     -0.00600759	      0.00241972	      0.02119344	     -0.01752214	     -0.00588243	      0.01272441	     -0.00538180	     -0.01226550	      0.02686728	     -0.03007967	     -0.02302909	      0.01422631	     -0.00721745	     -0.01526929	      0.03103921	     -0.03758916
